<?xml version="1.0" standalone="no"?>
<!DOCTYPE svg PUBLIC "-//W3C//DTD SVG 20010904//EN"
 "http://www.w3.org/TR/2001/REC-SVG-20010904/DTD/svg10.dtd">
<svg version="1.0" xmlns="http://www.w3.org/2000/svg"
 width="1006.000000pt" height="824.000000pt" viewBox="0 0 1006.000000 824.000000"
 preserveAspectRatio="xMidYMid meet">

<g transform="translate(0.000000,824.000000) scale(0.100000,-0.100000)"
fill="#000000" stroke="none">
<path d="M1707 6797 c-143 -174 -265 -419 -321 -643 -44 -179 -51 -240 -50
-444 0 -170 4 -211 27 -321 114 -542 445 -972 932 -1210 206 -100 404 -154
639 -174 l78 -7 -7 -301 c-4 -166 -9 -303 -10 -305 -2 -2 -49 21 -106 50 -57
29 -107 54 -110 56 -5 3 -42 -69 -37 -73 2 -1 60 -33 130 -69 l127 -67 -6
-227 c-4 -194 -8 -233 -24 -267 -29 -62 -39 -135 -39 -281 0 -107 3 -136 16
-148 8 -9 20 -16 26 -16 7 0 8 -93 4 -293 l-6 -292 40 115 c64 181 90 292 90
381 0 57 4 79 13 79 6 -1 57 -9 112 -19 87 -17 103 -17 123 -5 28 18 28 33 -2
92 -45 88 -71 212 -46 212 6 0 10 8 10 18 1 16 1 16 14 0 11 -15 31 -18 135
-18 l121 0 0 -50 c0 -83 -29 -136 -104 -191 l-39 -29 69 0 c41 0 75 5 82 12 8
8 12 53 12 135 l0 123 40 0 c35 0 40 3 40 23 0 49 -33 120 -75 161 -54 53
-151 121 -212 148 -66 30 -188 30 -254 1 l-47 -21 -6 426 c-3 235 -7 474 -9
532 l-2 105 70 7 c231 24 368 56 540 125 365 147 680 431 870 788 l48 90 -74
-71 c-243 -232 -550 -384 -899 -445 -121 -21 -385 -27 -500 -11 l-55 7 -7 180
c-4 99 -10 378 -15 620 -9 530 -17 449 -28 -288 l-7 -498 -42 7 c-22 3 -90 22
-151 41 -580 183 -1027 671 -1159 1263 -72 327 -51 673 59 966 13 35 23 64 21
64 -2 0 -20 -20 -39 -43z"/>
<path d="M6885 5315 c-419 -79 -757 -372 -884 -770 -42 -131 -54 -205 -55
-345 -1 -325 112 -594 344 -820 289 -282 685 -386 1085 -285 118 29 289 112
386 184 82 63 203 189 259 270 301 444 255 1034 -112 1426 -134 144 -347 269
-543 321 -128 33 -355 42 -480 19z m334 -901 c215 -136 391 -252 391 -259 0
-6 -8 -19 -17 -27 -42 -37 -760 -482 -778 -482 -20 -1 -20 6 -23 494 -1 272 0
501 3 508 2 6 11 12 19 12 8 0 190 -111 405 -246z"/>
<path d="M4088 2283 c-106 -105 -138 -143 -138 -163 0 -36 274 -310 311 -310
18 0 67 36 172 126 120 103 147 132 147 153 0 36 -293 331 -329 331 -18 0 -62
-37 -163 -137z m299 -65 l142 -143 -125 -114 -126 -114 -139 139 -139 139 117
117 c65 65 120 118 123 118 3 0 69 -64 147 -142z"/>
<path d="M4229 2194 c-16 -20 -1 -48 29 -52 27 -4 49 33 31 54 -15 19 -43 18
-60 -2z"/>
<path d="M4302 2138 c-19 -19 -14 -56 8 -63 43 -14 69 44 31 65 -24 13 -24 13
-39 -2z m28 -28 c0 -5 -5 -10 -11 -10 -5 0 -7 5 -4 10 3 6 8 10 11 10 2 0 4
-4 4 -10z"/>
<path d="M4259 1626 c-152 -74 -288 -141 -301 -150 -23 -15 -33 -15 -143 9
-65 14 -124 24 -131 21 -7 -3 -108 -71 -225 -153 l-211 -147 7 -68 c13 -138
65 -243 140 -285 l40 -23 -152 0 -153 0 -1 83 c-1 45 -4 190 -8 321 l-6 239
-77 -116 -78 -117 0 -83 c0 -46 -3 -139 -7 -205 l-6 -122 -143 0 c-84 0 -145
-4 -149 -10 -4 -7 1030 -10 3094 -10 2056 0 3102 3 3106 10 4 7 -536 10 -1614
10 l-1620 0 75 158 c42 86 78 163 81 170 3 8 -3 15 -16 19 -27 7 -26 16 5 93
14 34 23 69 20 76 -7 18 -67 18 -110 0 -47 -20 -68 -51 -121 -183 -39 -98 -44
-118 -31 -125 12 -7 10 -19 -18 -81 l-34 -72 52 -27 51 -27 -950 0 -950 0 75
23 c212 64 442 183 723 372 l138 93 62 -50 c235 -191 526 -328 697 -329 l46 0
43 87 c39 80 41 88 26 99 -16 12 -16 16 4 69 12 31 21 62 21 69 0 8 -150 96
-332 197 -183 100 -362 200 -398 222 -78 48 -156 77 -208 77 -28 0 -107 -34
-313 -134z"/>
<path d="M1205 820 c4 -7 240 -10 676 -10 444 0 668 3 664 10 -4 7 -240 10
-676 10 -444 0 -668 -3 -664 -10z"/>
</g>
</svg>
