<?xml version="1.0" standalone="no"?>
<!DOCTYPE svg PUBLIC "-//W3C//DTD SVG 20010904//EN"
 "http://www.w3.org/TR/2001/REC-SVG-20010904/DTD/svg10.dtd">
<svg version="1.0" xmlns="http://www.w3.org/2000/svg"
 width="1167.000000pt" height="694.000000pt" viewBox="0 0 1167.000000 694.000000"
 preserveAspectRatio="xMidYMid meet">

<g transform="translate(0.000000,694.000000) scale(0.100000,-0.100000)"
fill="#000000" stroke="none">
<path d="M1200 3470 l0 -2670 4635 0 4635 0 0 2670 0 2670 -4635 0 -4635 0 0
-2670z m9250 2560 l0 -90 -4615 0 -4615 0 0 90 0 90 4615 0 4615 0 0 -90z m0
-2660 l0 -2550 -4615 0 -4615 0 0 2550 0 2550 4615 0 4615 0 0 -2550z"/>
<path d="M1320 5760 c0 -6 57 -10 150 -10 93 0 150 4 150 10 0 6 -57 10 -150
10 -93 0 -150 -4 -150 -10z"/>
<path d="M3870 5680 l0 -90 1860 0 1860 0 0 90 0 90 -1860 0 -1860 0 0 -90z
m3700 0 l0 -70 -1840 0 -1840 0 0 70 0 70 1840 0 1840 0 0 -70z"/>
<path d="M7409 5714 c-17 -21 -1 -48 32 -52 13 -2 32 -11 42 -19 9 -9 17 -11
17 -6 0 6 -6 16 -14 23 -8 6 -12 18 -9 26 13 35 -43 58 -68 28z m51 -19 c0 -8
-9 -15 -20 -15 -11 0 -20 7 -20 15 0 8 9 15 20 15 11 0 20 -7 20 -15z"/>
<path d="M9630 5680 l0 -90 100 0 100 0 0 90 0 90 -100 0 -100 0 0 -90z m180
0 l0 -70 -80 0 -80 0 0 70 0 70 80 0 80 0 0 -70z"/>
<path d="M9880 5680 l0 -90 100 0 100 0 0 90 0 90 -100 0 -100 0 0 -90z m180
0 l0 -70 -80 0 -80 0 0 70 0 70 80 0 80 0 0 -70z"/>
<path d="M10130 5680 l0 -90 100 0 100 0 0 90 0 90 -100 0 -100 0 0 -90z m180
0 l0 -70 -80 0 -80 0 0 70 0 70 80 0 80 0 0 -70z"/>
<path d="M1320 5680 c0 -6 57 -10 150 -10 93 0 150 4 150 10 0 6 -57 10 -150
10 -93 0 -150 -4 -150 -10z"/>
<path d="M1320 5600 c0 -6 57 -10 150 -10 93 0 150 4 150 10 0 6 -57 10 -150
10 -93 0 -150 -4 -150 -10z"/>
<path d="M5192 5467 c-69 -25 -120 -85 -146 -169 -5 -17 -94 -18 -1676 -18
l-1670 0 0 -1940 0 -1940 3410 0 3410 0 0 1940 0 1940 -1496 0 -1495 0 -37 29
c-20 16 -52 34 -71 40 -70 23 -140 9 -203 -40 -29 -23 -47 -29 -84 -29 l-46 0
6 33 c10 54 56 110 115 140 55 27 44 36 -17 14z m-147 -244 c9 -49 37 -102 70
-133 31 -29 57 -75 48 -84 -4 -3 -14 -6 -24 -6 -9 0 -53 -18 -96 -40 -125 -62
-202 -158 -238 -297 -18 -71 -19 -238 -2 -313 11 -44 11 -65 1 -104 -41 -162
-43 -391 -4 -551 30 -121 20 -169 -56 -282 -109 -162 -120 -304 -39 -470 44
-88 101 -142 221 -206 49 -26 95 -51 102 -56 10 -6 2 -26 -33 -85 -25 -42 -45
-79 -45 -81 0 -3 20 -5 44 -5 l45 0 3 -41 c3 -40 8 -33 184 272 162 280 184
314 205 312 13 -2 67 -6 119 -9 l96 -7 56 -62 56 -61 -14 -75 c-8 -41 -14 -78
-14 -84 0 -5 27 17 61 50 l61 60 -41 -82 -41 -83 24 0 c43 0 129 22 184 46 71
31 124 75 159 129 31 50 35 52 53 30 20 -24 28 -18 44 39 56 192 11 358 -141
516 l-78 82 0 57 c0 44 7 70 31 116 97 185 104 202 116 278 29 190 -44 446
-161 568 -39 40 -50 59 -55 96 -20 150 -140 273 -322 329 l-82 26 17 31 c21
42 21 142 -1 185 l-16 32 1479 0 1479 0 0 -1920 0 -1920 -3390 0 -3390 0 0
1920 0 1920 1659 0 1659 0 7 -37z m114 15 c-7 -13 -18 -43 -24 -68 l-13 -45
-14 35 c-9 19 -18 50 -21 68 l-6 32 45 0 c43 0 44 -1 33 -22z m194 -841 c48
-32 151 -90 230 -129 78 -38 152 -79 164 -90 58 -53 32 -256 -47 -373 -11 -16
-20 -36 -20 -44 0 -8 -27 -56 -60 -107 -34 -52 -72 -124 -86 -161 -23 -59 -25
-79 -21 -148 3 -44 9 -91 13 -104 7 -24 7 -24 -45 -18 -91 11 -165 67 -228
174 -23 40 -29 63 -33 136 l-5 89 -54 23 c-30 12 -78 41 -106 62 l-51 40 -31
119 c-68 258 -68 260 125 456 82 83 150 144 156 141 6 -4 50 -33 99 -66z
m-242 -1008 c4 -13 7 -56 8 -95 1 -65 3 -72 34 -102 17 -17 55 -44 84 -59 l52
-29 -115 -199 c-64 -110 -119 -204 -124 -209 -10 -10 -39 46 -66 124 -28 82
-24 210 9 333 15 54 30 133 33 177 6 75 8 79 33 83 39 6 45 3 52 -24z"/>
<path d="M3100 1880 c0 -20 5 -20 2545 -20 2534 0 2545 0 2545 20 0 20 -11 20
-2545 20 -2540 0 -2545 0 -2545 -20z"/>
<path d="M2270 1650 l0 -110 25 0 25 0 0 110 0 110 -25 0 -25 0 0 -110z"/>
<path d="M2390 1650 l0 -110 25 0 25 0 0 110 0 110 -25 0 -25 0 0 -110z"/>
<path d="M2738 1711 l-3 -50 -73 45 c-40 24 -77 44 -82 44 -6 0 -10 -42 -10
-100 0 -73 3 -100 13 -100 6 0 44 21 82 45 l70 45 3 -50 c3 -46 5 -50 28 -50
l24 0 0 110 0 110 -24 0 c-23 0 -25 -4 -28 -49z"/>
</g>
</svg>
